<svg preserveAspectRatio="none" width="100%" height="100%" overflow="visible" style="display: block;" viewBox="0 0 50.0077 66" fill="none" xmlns="http://www.w3.org/2000/svg">
<path id="Vector" d="M48.1501 22.9053C46.8721 19.7487 45.1336 16.934 42.9882 14.5789C40.7852 12.2238 38.1141 10.3321 35.0399 9.01019C32.8945 8.03016 30.5419 7.3996 28.0703 7.1185V5.30659L31.06 0H18.9477L21.9412 5.30659V7.1185C19.4658 7.3996 17.1131 8.03016 14.9678 9.01019C11.8936 10.3321 9.22628 12.2238 7.0195 14.5789C4.87412 16.934 3.13172 19.7449 1.85754 22.9053C0.640927 26.0619 0 29.4502 0 33.0095C0 36.5687 0.637089 39.9571 1.85754 43.1137C3.13172 46.2703 4.87412 49.028 7.0195 51.3793C9.22244 53.7344 11.8936 55.6261 14.9678 57.005C17.1131 57.985 19.4658 58.6156 21.9412 58.8967V60.7618L18.9477 66H31.06L28.0703 60.7618V58.8967C30.5419 58.6156 32.8945 57.985 35.0399 57.005C38.1141 55.6261 40.7814 53.7306 42.9882 51.3793C45.1336 49.0242 46.876 46.2703 48.1501 43.1137C49.3668 39.9571 50.0077 36.5687 50.0077 33.0095C50.0077 29.4502 49.3706 26.0619 48.1501 22.9053ZM19.2624 50.8627C16.9404 49.5978 14.8526 47.934 13.1716 45.8676C11.4331 43.8012 10.0399 41.4461 9.05358 38.7491C8.06724 36.1661 7.60286 33.4083 7.60286 30.7114C7.60286 27.8397 8.06724 25.2566 8.93844 23.1332C9.86721 20.9529 11.0838 19.1144 12.5345 17.6785C13.9853 16.2426 15.6663 15.0955 17.5238 14.3472C18.9707 13.766 20.4521 13.4279 21.945 13.3064V52.0061C21.0239 51.7098 20.1297 51.33 19.2662 50.8589L19.2624 50.8627ZM41.2458 42.2514C40.5511 44.3178 39.4458 46.1563 38.0565 47.7061C36.7209 49.2559 35.0399 50.5209 33.1248 51.3793C31.5666 52.1277 29.8895 52.5721 28.0665 52.7088V14.0623C28.7304 14.2826 29.3905 14.5523 30.0507 14.8676C32.3112 15.9008 34.4028 17.4506 36.199 19.3461C38.0565 21.2985 39.5648 23.7106 40.6663 26.4076C41.8253 29.1616 42.4048 32.265 42.4048 35.5925C42.4048 37.9476 42.0556 40.185 41.2458 42.2514Z" fill="var(--fill-0, #8B908F)"/>
</svg>
